Coordinates
version=1
nRows=34
nColumns=38
inDegrees=no

Units are S.I. units (second, meters, Newtons, ...)
If the header above contains a line with 'inDegrees', this indicates whether rotational values are in degrees (yes) or radians (no).

endheader
time	pelvis_tilt	pelvis_list	pelvis_rotation	pelvis_tx	pelvis_ty	pelvis_tz	hip_flexion_r	hip_adduction_r	hip_rotation_r	knee_angle_r	ankle_angle_r	subtalar_angle_r	mtp_angle_r	hip_flexion_l	hip_adduction_l	hip_rotation_l	knee_angle_l	ankle_angle_l	subtalar_angle_l	mtp_angle_l	lumbar_extension	lumbar_bending	lumbar_rotation	arm_flex_r	arm_add_r	arm_rot_r	elbow_flex_r	pro_sup_r	wrist_flex_r	wrist_dev_r	arm_flex_l	arm_add_l	arm_rot_l	elbow_flex_l	pro_sup_l	wrist_flex_l	wrist_dev_l
0.51	0.248822	1.25731	-1.88547	0.88658	1.27308	0.945958	0.180077	-0.261863	-0.0049691	1.64817	0.0294103	0	0	-0.106696	0.13342	-0.237248	0.281971	-0.0183004	0	0	-0.386125	-0.105695	0.00558864	0.562965	-0.562424	0.374467	1.01273	0.7414	0	0	0.428688	-0.349162	-0.0120321	1.3309	1.5708	0	0
0.52	0.244834	1.25868	-1.87747	0.887094	1.2635	0.94797	0.2123	-0.243184	-0.00482107	1.6743	0.0411651	0	0	-0.122421	0.129486	-0.237649	0.273196	-0.0134521	0	0	-0.385644	-0.101798	-0.00126912	0.566814	-0.560577	0.379634	1.00901	0.744267	0	0	0.426564	-0.353336	-0.0141885	1.33143	1.5708	0	0
0.53	0.233596	1.25996	-1.86022	0.888814	1.2539	0.949874	0.24329	-0.235102	0.00132144	1.6928	0.0599254	0	0	-0.139037	0.127694	-0.231932	0.263515	-0.0121669	0	0	-0.386185	-0.0932612	-0.0106246	0.571379	-0.55935	0.384977	1.00537	0.743827	0	0	0.424413	-0.356091	-0.014808	1.33253	1.5708	0	0
0.54	0.221585	1.26032	-1.84094	0.890623	1.24444	0.951845	0.27101	-0.22799	0.00450829	1.70496	0.0790065	0	0	-0.157418	0.126088	-0.223816	0.251825	-0.012119	0	0	-0.388304	-0.0843332	-0.0211266	0.576401	-0.55793	0.390939	1.00188	0.740375	0	0	0.423038	-0.358266	-0.0159603	1.33372	1.5708	0	0
0.55	0.208374	1.25969	-1.81977	0.892428	1.23512	0.953891	0.295618	-0.221277	0.0056661	1.71078	0.0989313	0	0	-0.177282	0.124019	-0.214368	0.239259	-0.0125207	0	0	-0.392137	-0.075092	-0.0319476	0.581399	-0.556545	0.396075	0.999001	0.737014	0	0	0.422569	-0.359507	-0.018096	1.33457	1.5708	0	0
0.56	0.19356	1.25827	-1.79661	0.894138	1.22592	0.955983	0.317339	-0.214475	0.00518217	1.71032	0.118129	0	0	-0.198007	0.120909	-0.20455	0.226767	-0.0128705	0	0	-0.397236	-0.0656791	-0.0425486	0.585537	-0.555626	0.398108	0.996094	0.743005	0	0	0.423077	-0.360019	-0.0200058	1.33549	1.5708	0	0
0.57	0.179912	1.25751	-1.7743	0.895721	1.21671	0.958042	0.337747	-0.20791	0.00356165	1.70453	0.135585	0	0	-0.218293	0.117423	-0.193214	0.213307	-0.014238	0	0	-0.401391	-0.0581566	-0.0522437	0.579974	-0.54854	0.316665	0.951455	0.0628654	0	0	0.424956	-0.359731	-0.0201298	1.33679	1.5708	0	0
0.58	0.164374	1.25376	-1.7505	0.897374	1.20768	0.96012	0.353033	-0.202456	0.000358984	1.69321	0.150093	0	0	-0.243019	0.113957	-0.180123	0.197165	-0.0169196	0	0	-0.409544	-0.0472935	-0.0626749	0.593377	-0.555184	0.403953	0.991927	0.746086	0	0	0.425061	-0.359462	-0.0245683	1.33894	1.5708	0	0
0.59	0.152232	1.25281	-1.72999	0.898888	1.19859	0.961921	0.370139	-0.197805	-0.00435807	1.67682	0.165823	0	0	-0.263113	0.109646	-0.170195	0.183743	-0.018515	0	0	-0.413874	-0.0389269	-0.0720721	0.596512	-0.554952	0.406707	0.990227	0.74544	0	0	0.425989	-0.359239	-0.0261148	1.34039	1.5708	0	0
0.6	0.141468	1.25305	-1.71114	0.900269	1.18945	0.963485	0.386736	-0.193491	-0.0102843	1.65548	0.177125	0	0	-0.280858	0.104929	-0.162431	0.17207	-0.0192145	0	0	-0.416257	-0.0313102	-0.0810071	0.598927	-0.554268	0.407122	0.988837	0.745793	0	0	0.426824	-0.35974	-0.026803	1.34128	1.5708	0	0
0.61	0.116186	1.26804	-1.69066	0.898485	1.17979	0.962948	0.423469	-0.16956	-0.00623832	1.63596	0.185217	0	0	-0.280356	0.0916225	-0.175385	0.167901	-0.00844888	0	0	-0.401106	-0.0255699	-0.0755192	0.595583	-0.550642	0.405681	0.985653	0.7367	0	0	0.425671	-0.363845	-0.0239194	1.34188	1.5708	0	0
0.62	0.104853	1.2692	-1.67323	0.899392	1.17063	0.9642	0.437167	-0.164878	-0.013941	1.60575	0.193933	0	0	-0.295649	0.086611	-0.170943	0.158217	-0.00767418	0	0	-0.401857	-0.019031	-0.0818341	0.59668	-0.550691	0.408129	0.984072	0.731662	0	0	0.427517	-0.365364	-0.0220649	1.34106	1.5708	0	0
0.63	0.0961211	1.27138	-1.65814	0.900233	1.16146	0.965347	0.449573	-0.161497	-0.0228012	1.57071	0.203472	0	0	-0.309296	0.0824303	-0.161947	0.149107	-0.008585	0	0	-0.401338	-0.0144556	-0.0872032	0.587464	-0.544813	0.328613	0.950065	0.165565	0	0	0.431318	-0.366797	-0.0164122	1.33906	1.5708	0	0
0.64	0.0857224	1.27123	-1.64134	0.901216	1.15243	0.966402	0.456748	-0.158969	-0.0333086	1.53165	0.212334	0	0	-0.324658	0.0780036	-0.155011	0.140448	-0.00878878	0	0	-0.403851	-0.00623778	-0.0932753	0.596809	-0.553062	0.409535	0.985955	0.726707	0	0	0.434244	-0.367668	-0.0142766	1.3366	1.5708	0	0
0.65	0.0762875	1.27275	-1.62589	0.902002	1.14343	0.967211	0.463593	-0.15659	-0.044611	1.48861	0.219113	0	0	-0.336341	0.073266	-0.148906	0.135421	-0.00685027	0	0	-0.404515	2.77995e-05	-0.0974298	0.595474	-0.55551	0.406868	0.988897	0.727422	0	0	0.439273	-0.368517	-0.00703867	1.33307	1.5708	0	0
0.66	0.0686323	1.27545	-1.61316	0.902567	1.13447	0.967688	0.469864	-0.15431	-0.0556214	1.44215	0.223719	0	0	-0.344772	0.0689249	-0.145637	0.13395	-0.00400242	0	0	-0.403952	0.00518811	-0.100931	0.594419	-0.557192	0.404121	0.990834	0.727695	0	0	0.443536	-0.369389	-0.000634325	1.33011	1.5708	0	0
0.67	0.0595663	1.27792	-1.59968	0.90309	1.12548	0.968037	0.472731	-0.152037	-0.067995	1.39129	0.228394	0	0	-0.353561	0.0645579	-0.141557	0.132339	-0.00101064	0	0	-0.403087	0.00940543	-0.101281	0.589905	-0.559791	0.396402	0.99276	0.729431	0	0	0.440171	-0.383507	0.138013	1.33554	1.0463	0	0
0.68	0.0539517	1.28073	-1.58979	0.903441	1.11649	0.968151	0.473299	-0.151105	-0.0815144	1.33631	0.231993	0	0	-0.36101	0.0607881	-0.138622	0.132825	0.00418376	0	0	-0.403048	0.0147562	-0.108017	0.594003	-0.558315	0.398966	0.992698	0.728954	0	0	0.448546	-0.369261	0.00429668	1.3268	1.5708	0	0
0.69	0.0478844	1.28379	-1.58069	0.903791	1.10752	0.968056	0.471504	-0.149798	-0.0950055	1.27694	0.234103	0	0	-0.367875	0.0573719	-0.136957	0.134084	0.010243	0	0	-0.401749	0.0178043	-0.108162	0.590756	-0.560367	0.392501	0.994367	0.73131	0	0	0.443789	-0.383036	0.141	1.33398	1.03143	0	0
0.7	0.0447559	1.28766	-1.57537	0.903966	1.09851	0.967673	0.468076	-0.148883	-0.108359	1.21335	0.235266	0	0	-0.373093	0.0549995	-0.136331	0.136628	0.0161648	0	0	-0.400249	0.0207822	-0.110474	0.591751	-0.561081	0.390397	0.997009	0.728305	0	0	0.445392	-0.382639	0.142541	1.3336	1.02676	0	0
0.71	0.0438433	1.29356	-1.57317	0.903849	1.08934	0.966976	0.463825	-0.147559	-0.121711	1.14513	0.237514	0	0	-0.375344	0.0533443	-0.136449	0.140737	0.0224415	0	0	-0.39621	0.0209523	-0.111167	0.580236	-0.552035	0.299368	0.97357	0.271652	0	0	0.4478	-0.382304	0.146553	1.33284	1.02066	0	0
0.72	-0.0208812	1.27822	-1.50315	0.902768	1.07943	0.969255	0.417448	-0.123883	-0.151808	1.05145	0.237412	0	0	-0.403855	0.0270862	-0.144513	0.140196	0.0287819	0	0	-0.413626	0.0417182	-0.111228	0.580795	-0.550346	0.293524	0.972085	0.256038	0	0	0.449491	-0.382673	0.147915	1.33151	1.01974	0	0
0.73	0.0418952	1.29988	-1.57099	0.903509	1.07081	0.965068	0.439199	-0.145202	-0.153736	0.993615	0.242474	0	0	-0.386678	0.0511592	-0.138114	0.148299	0.0363232	0	0	-0.393638	0.0258532	-0.11283	0.594913	-0.563145	0.384171	1.00315	0.734544	0	0	0.448207	-0.38213	0.145879	1.33222	1.01929	0	0
0.74	0.0475557	1.30518	-1.57749	0.903076	1.06119	0.963526	0.425226	-0.145033	-0.171175	0.910777	0.244401	0	0	-0.39047	0.0521831	-0.137991	0.152165	0.0438909	0	0	-0.388938	0.0248642	-0.113001	0.596299	-0.563545	0.382845	1.00234	0.744882	0	0	0.447809	-0.381679	0.145289	1.33149	1.01984	0	0
0.75	-0.0136016	1.29081	-1.51265	0.901581	1.05064	0.964856	0.36949	-0.120829	-0.2051	0.797646	0.234941	0	0	-0.419506	0.0283671	-0.144981	0.151005	0.051815	0	0	-0.403865	0.0425937	-0.112323	0.597552	-0.561357	0.379698	0.999177	0.755986	0	0	0.448121	-0.381298	0.144384	1.32955	1.02096	0	0
0.76	0.0578464	1.31444	-1.59052	0.90168	1.04137	0.959802	0.384649	-0.140621	-0.213027	0.725452	0.236111	0	0	-0.402221	0.0535819	-0.135384	0.157244	0.0616251	0	0	-0.38005	0.0224733	-0.111733	0.599575	-0.562809	0.381186	0.999315	0.761316	0	0	0.447617	-0.379748	0.14285	1.32845	1.0236	0	0
0.77	0.0722406	1.32193	-1.6077	0.900608	1.03118	0.957135	0.366903	-0.138247	-0.233047	0.632343	0.238535	0	0	-0.406005	0.0566481	-0.134766	0.158782	0.0722624	0	0	-0.371908	0.0181436	-0.109618	0.59908	-0.562663	0.379908	0.999606	0.76265	0	0	0.448157	-0.3793	0.1435	1.32617	1.02478	0	0
0.78	0.00328196	1.30617	-1.5362	0.898448	1.02016	0.957746	0.300211	-0.105564	-0.266373	0.501634	0.222333	0	0	-0.440221	0.0316039	-0.143599	0.153995	0.0838165	0	0	-0.388494	0.0354487	-0.106398	0.598231	-0.561717	0.375511	0.999596	0.771399	0	0	0.451661	-0.380206	0.148415	1.32346	1.01285	0	0
0.79	0.0960891	1.33712	-1.63613	0.897942	1.01035	0.951157	0.32247	-0.124299	-0.272152	0.431197	0.226435	0	0	-0.415524	0.0592308	-0.134603	0.160029	0.0971606	0	0	-0.35471	0.00932114	-0.103139	0.584648	-0.557822	0.293254	0.975205	0.213349	0	0	0.452973	-0.378759	0.152175	1.31979	1.0208	0	0
0.8	0.113109	1.3453	-1.65637	0.896317	0.999866	0.947516	0.300002	-0.114346	-0.281768	0.331491	0.220237	0	0	-0.420122	0.06139	-0.137239	0.159939	0.110361	0	0	-0.344977	0.00534205	-0.100138	0.594086	-0.561916	0.373151	1.00002	0.760701	0	0	0.453495	-0.378568	0.151815	1.31702	1.02458	0	0
0.81	0.0545521	1.33546	-1.60059	0.89282	0.988698	0.94642	0.239754	-0.0773539	-0.281062	0.206196	0.197889	0	0	-0.449094	0.0422682	-0.153647	0.155741	0.123838	0	0	-0.355189	0.0142894	-0.0927954	0.59448	-0.561901	0.374079	0.999718	0.762776	0	0	0.457721	-0.37972	0.153992	1.31428	1.03322	0	0
0.82	0.161761	1.36735	-1.71133	0.892138	0.978392	0.939058	0.261139	-0.09296	-0.272341	0.147257	0.200046	0	0	-0.421699	0.0651725	-0.147593	0.16365	0.140574	0	0	-0.317244	-0.00713274	-0.0949732	0.595392	-0.560196	0.378542	0.996853	0.767103	0	0	0.461732	-0.364038	0.0168153	1.30162	1.5708	0	0
0.83	0.101811	1.35787	-1.65686	0.887953	0.966949	0.937379	0.19807	-0.0572419	-0.232669	0.0301486	0.157195	0	0	-0.45112	0.0480833	-0.16865	0.160368	0.154941	0	0	-0.326193	-0.00265543	-0.0824176	0.591803	-0.559242	0.373436	0.992598	0.769603	0	0	0.463241	-0.380008	0.160682	1.30704	1.02781	0	0
0.84	0.217397	1.3847	-1.76901	0.888449	0.955929	0.930404	0.214481	-0.0754504	-0.22242	0	0.152059	0	0	-0.429772	0.0675779	-0.15408	0.165898	0.168573	0	0	-0.290653	-0.0205051	-0.0865485	0.587638	-0.561656	0.375901	0.990618	0.766414	0	0	0.462833	-0.376299	0.162269	1.30086	1.03971	0	0
